<?xml version="1.0" standalone="no"?>
<!DOCTYPE svg PUBLIC "-//W3C//DTD SVG 20010904//EN"
 "http://www.w3.org/TR/2001/REC-SVG-20010904/DTD/svg10.dtd">
<svg version="1.0" xmlns="http://www.w3.org/2000/svg"
 width="198.000000pt" height="198.000000pt" viewBox="0 0 198.000000 198.000000"
 preserveAspectRatio="xMidYMid meet">

<g transform="translate(0.000000,198.000000) scale(0.100000,-0.100000)"
fill="#000000" stroke="none">
<path d="M855 1969 c-118 -17 -257 -67 -369 -132 -81 -47 -91 -54 -174 -132
-308 -288 -399 -751 -222 -1128 30 -63 33 -69 85 -147 256 -390 810 -542 1230
-338 136 67 172 92 268 185 151 149 234 296 285 508 23 98 23 304 -2 409 -70
303 -265 551 -541 688 -158 79 -379 113 -560 87z m335 -84 c41 -10 110 -33
154 -52 458 -196 677 -705 507 -1173 -94 -257 -300 -459 -563 -550 -339 -118
-702 -31 -959 231 -127 129 -209 283 -245 459 -23 113 -15 335 15 435 106 353
397 609 756 665 83 12 245 5 335 -15z"/>
<path d="M596 1457 c-17 -19 -66 -76 -108 -129 -73 -90 -92 -128 -68 -143 12
-7 705 -14 843 -8 l97 4 105 125 c58 69 105 132 105 139 0 7 -7 21 -16 29 -14
14 -70 16 -471 16 l-456 0 -31 -33z m834 -57 c0 -5 -27 -41 -60 -80 l-61 -70
-379 0 c-208 0 -381 3 -383 8 -3 4 23 40 56 80 l62 72 382 0 c242 0 383 -4
383 -10z"/>
<path d="M422 1128 c-24 -24 -10 -50 91 -173 l102 -125 465 0 c474 0 490 1
490 37 0 12 -192 250 -214 265 -6 4 -216 8 -467 8 -341 0 -458 -3 -467 -12z
m951 -138 c31 -38 57 -72 57 -75 0 -3 -173 -5 -384 -5 l-384 0 -54 63 c-30 34
-58 68 -62 75 -6 9 73 12 381 12 l388 0 58 -70z"/>
<path d="M593 758 c-73 -78 -183 -220 -183 -236 0 -42 6 -42 486 -42 l461 0
85 102 c128 156 132 162 119 187 -12 21 -13 21 -474 21 l-463 0 -31 -32z m837
-54 c0 -3 -26 -37 -57 -75 l-57 -69 -389 0 c-369 0 -389 1 -376 18 7 9 35 43
62 75 l49 57 384 0 c211 0 384 -3 384 -6z"/>
</g>
</svg>
