<?xml version="1.0" standalone="yes"?>
<svg xmlns="http://www.w3.org/2000/svg" width="198" height="198">
<path style="fill:#030303; stroke:none;" d="M0 0L0 198L198 198L198 0L0 0z"/>
<path style="fill:#3e5c3c; stroke:none;" d="M87.6667 0.333328L88.3333 0.666672L87.6667 0.333328M109.667 0.333328L110.333 0.666672L109.667 0.333328M80 1L81 2L80 1M117 1L118 2L117 1M126 3L127 4L126 3M98.6667 6.33333L99.3333 6.66667L98.6667 6.33333M85 7L85 8L90 8L85 7z"/>
<path style="fill:#539c4d; stroke:none;" d="M90 7L90 8L108 8L90 7z"/>
<path style="fill:#3e5c3c; stroke:none;" d="M108 7L108 8L112 8L108 7M137 7L138 8L137 7M79 8L79 9L82 9L79 8z"/>
<path style="fill:#539c4d; stroke:none;" d="M82 8L82 9L85 9L82 8z"/>
<path style="fill:#4be343; stroke:none;" d="M64 14L64 15C79.5566 11.4011 93.7217 7.28709 110 9.28627C119.854 10.4964 128.553 14.4162 138 17C119.028 1.67226 84.9491 7.18347 64 14z"/>
<path style="fill:#539c4d; stroke:none;" d="M112 8L112 9L115 9L112 8z"/>
<path style="fill:#3e5c3c; stroke:none;" d="M115 8L115 9L118 9L115 8M75 9L75 10L78 10L75 9z"/>
<path style="fill:#539c4d; stroke:none;" d="M78 9L79 10L78 9z"/>
<path style="fill:#07ff05; stroke:none;" d="M86 9.42516C72.7661 11.2274 60.3377 15.7484 49 22.8148C-17.6799 64.3741 1.63607 175.189 80 189.076C88.8997 190.654 97.9526 191.797 107 190.715C121.963 188.925 136.283 184.57 149 176.305C158.835 169.912 167.07 161.603 173.792 152C218.861 87.6132 163.327 -1.10576 86 9.42516z"/>
<path style="fill:#539c4d; stroke:none;" d="M118.667 9.33333L119.333 9.66667L118.667 9.33333z"/>
<path style="fill:#3e5c3c; stroke:none;" d="M120.667 9.33333L121.333 9.66667L120.667 9.33333M72.6667 10.3333L73.3333 10.6667L72.6667 10.3333z"/>
<path style="fill:#539c4d; stroke:none;" d="M74 10L75 11L74 10M122 10L123 11L122 10z"/>
<path style="fill:#3e5c3c; stroke:none;" d="M123.667 10.3333L124.333 10.6667L123.667 10.3333M66 12L66 13L70 12L66 12z"/>
<path style="fill:#539c4d; stroke:none;" d="M70.6667 11.3333L71.3333 11.6667L70.6667 11.3333M125.667 11.3333L126.333 11.6667L125.667 11.3333z"/>
<path style="fill:#3e5c3c; stroke:none;" d="M127.667 11.3333L128.333 11.6667L127.667 11.3333z"/>
<path style="fill:#539c4d; stroke:none;" d="M68 12L69 13L68 12M129 12L130 13L129 12z"/>
<path style="fill:#3e5c3c; stroke:none;" d="M130 12L131 13L130 12M61 14L61 15L65 14L61 14z"/>
<path style="fill:#539c4d; stroke:none;" d="M65 13L66 14L65 13M131 13L132 14L131 13z"/>
<path style="fill:#3e5c3c; stroke:none;" d="M132.667 13.3333L133.333 13.6667L132.667 13.3333z"/>
<path style="fill:#539c4d; stroke:none;" d="M63 14L64 15L63 14M134 14L135 15L134 14z"/>
<path style="fill:#3e5c3c; stroke:none;" d="M135 14L136 15L135 14M59 15L60 16L59 15z"/>
<path style="fill:#539c4d; stroke:none;" d="M60.6667 15.3333L61.3333 15.6667L60.6667 15.3333z"/>
<path style="fill:#4be343; stroke:none;" d="M62 15L63 16L62 15z"/>
<path style="fill:#539c4d; stroke:none;" d="M136 15L137 16L136 15z"/>
<path style="fill:#3e5c3c; stroke:none;" d="M137 15L138 16L137 15M57 16L58 17L57 16z"/>
<path style="fill:#539c4d; stroke:none;" d="M58 16L59 17L58 16z"/>
<path style="fill:#4be343; stroke:none;" d="M59.6667 16.3333L60.3333 16.6667L59.6667 16.3333z"/>
<path style="fill:#539c4d; stroke:none;" d="M138 16L139 17L138 16z"/>
<path style="fill:#3e5c3c; stroke:none;" d="M139 16L139 17L142 18L139 16M55 17L56 18L55 17z"/>
<path style="fill:#539c4d; stroke:none;" d="M56 17L57 18L56 17z"/>
<path style="fill:#4be343; stroke:none;" d="M57.6667 17.3333L58.3333 17.6667L57.6667 17.3333M139 17L140 18L139 17z"/>
<path style="fill:#539c4d; stroke:none;" d="M140 17L141 18L140 17z"/>
<path style="fill:#3e5c3c; stroke:none;" d="M53 18L52 20L53 18z"/>
<path style="fill:#539c4d; stroke:none;" d="M54 18L53 20L54 18z"/>
<path style="fill:#4be343; stroke:none;" d="M55.6667 18.3333L56.3333 18.6667L55.6667 18.3333M141 18L142 19L141 18z"/>
<path style="fill:#539c4d; stroke:none;" d="M142 18L143 19L142 18z"/>
<path style="fill:#3e5c3c; stroke:none;" d="M143 18L144 19L143 18z"/>
<path style="fill:#4be343; stroke:none;" d="M54 19L55 20L54 19M143 19L143 20L147 22L147 21L143 19z"/>
<path style="fill:#539c4d; stroke:none;" d="M144 19L145 20L144 19z"/>
<path style="fill:#3e5c3c; stroke:none;" d="M145 19L146 20L145 19M50 20L51 21L50 20z"/>
<path style="fill:#539c4d; stroke:none;" d="M51 20L52 21L51 20z"/>
<path style="fill:#4be343; stroke:none;" d="M52 20L53 21L52 20z"/>
<path style="fill:#3e5c3c; stroke:none;" d="M146 20L146 21L149 22L146 20M48 21L47 23L48 21z"/>
<path style="fill:#539c4d; stroke:none;" d="M49 21L48 23L49 21z"/>
<path style="fill:#4be343; stroke:none;" d="M50.6667 21.3333L51.3333 21.6667L50.6667 21.3333z"/>
<path style="fill:#539c4d; stroke:none;" d="M147 21L148 22L147 21z"/>
<path style="fill:#4be343; stroke:none;" d="M49 22L50 23L49 22M148 22L150 24L148 22z"/>
<path style="fill:#539c4d; stroke:none;" d="M149 22L151 24L149 22z"/>
<path style="fill:#3e5c3c; stroke:none;" d="M150 22L151 23L150 22M45 23L44 25L45 23z"/>
<path style="fill:#539c4d; stroke:none;" d="M46 23L47 24L46 23z"/>
<path style="fill:#4be343; stroke:none;" d="M47 23L48 24L47 23z"/>
<path style="fill:#3e5c3c; stroke:none;" d="M151 23L151 24L157 28L151 23z"/>
<path style="fill:#4be343; stroke:none;" d="M45.6667 24.3333L46.3333 24.6667L45.6667 24.3333M151 24L152 25L151 24z"/>
<path style="fill:#539c4d; stroke:none;" d="M43 25L41 28L43 25z"/>
<path style="fill:#4be343; stroke:none;" d="M44 25L45 26L44 25M152 25L154 27L152 25z"/>
<path style="fill:#539c4d; stroke:none;" d="M153 25L154 26L153 25z"/>
<path style="fill:#3e5c3c; stroke:none;" d="M41 26L42 27L41 26z"/>
<path style="fill:#4be343; stroke:none;" d="M43 26L44 27L43 26z"/>
<path style="fill:#539c4d; stroke:none;" d="M154 26L155 27L154 26z"/>
<path style="fill:#3e5c3c; stroke:none;" d="M40 27L38 30L40 27z"/>
<path style="fill:#4be343; stroke:none;" d="M42 27L43 28L42 27M155 27L156 28L155 27M40.6667 28.3333L41.3333 28.6667L40.6667 28.3333M156 28L176 50C171.18 41.3518 164.43 33.2728 156 28z"/>
<path style="fill:#539c4d; stroke:none;" d="M157 28L160 31L157 28z"/>
<path style="fill:#3e5c3c; stroke:none;" d="M158 28L159 29L158 28z"/>
<path style="fill:#4be343; stroke:none;" d="M39 29L40 30L39 29z"/>
<path style="fill:#3e5c3c; stroke:none;" d="M159 29L160 30L159 29M36 30L31 36L36 30z"/>
<path style="fill:#539c4d; stroke:none;" d="M37 30L29 39L37 30z"/>
<path style="fill:#4be343; stroke:none;" d="M38 30L39 31L38 30z"/>
<path style="fill:#3e5c3c; stroke:none;" d="M160 30L161 31L160 30z"/>
<path style="fill:#4be343; stroke:none;" d="M37 31L38 32L37 31z"/>
<path style="fill:#3e5c3c; stroke:none;" d="M161 31L162 32L161 31z"/>
<path style="fill:#4be343; stroke:none;" d="M36 32L37 33L36 32z"/>
<path style="fill:#3e5c3c; stroke:none;" d="M162 32L163 33L162 32z"/>
<path style="fill:#4be343; stroke:none;" d="M35 33L36 34L35 33z"/>
<path style="fill:#3e5c3c; stroke:none;" d="M163 33L164 34L163 33z"/>
<path style="fill:#4be343; stroke:none;" d="M34 34L35 35L34 34z"/>
<path style="fill:#3e5c3c; stroke:none;" d="M164 34L165 35L164 34z"/>
<path style="fill:#4be343; stroke:none;" d="M33 35L34 36L33 35z"/>
<path style="fill:#3e5c3c; stroke:none;" d="M165 35L166 36L165 35z"/>
<path style="fill:#4be343; stroke:none;" d="M32 36L33 37L32 36z"/>
<path style="fill:#3e5c3c; stroke:none;" d="M166 36L167 37L166 36M29 37L30 38L29 37z"/>
<path style="fill:#4be343; stroke:none;" d="M31 37L32 38L31 37z"/>
<path style="fill:#3e5c3c; stroke:none;" d="M167 37L170 40L167 37z"/>
<path style="fill:#4be343; stroke:none;" d="M30 38L31 39L30 38z"/>
<path style="fill:#539c4d; stroke:none;" d="M167 38L168 39L167 38z"/>
<path style="fill:#3e5c3c; stroke:none;" d="M28 39L25 43L28 39z"/>
<path style="fill:#4be343; stroke:none;" d="M29 39L30 40L29 39z"/>
<path style="fill:#539c4d; stroke:none;" d="M168 39L169 40L168 39z"/>
<path style="fill:#4be343; stroke:none;" d="M28 40L19 54L20 54L28 40z"/>
<path style="fill:#539c4d; stroke:none;" d="M169 40L170 41L169 40z"/>
<path style="fill:#3e5c3c; stroke:none;" d="M170 41L171 42L170 41z"/>
<path style="fill:#539c4d; stroke:none;" d="M26 42L27 43L26 42z"/>
<path style="fill:#3e5c3c; stroke:none;" d="M171 42L172 43L171 42z"/>
<path style="fill:#539c4d; stroke:none;" d="M25 43L26 44L25 43z"/>
<path style="fill:#3e5c3c; stroke:none;" d="M172 43L174 45L172 43z"/>
<path style="fill:#539c4d; stroke:none;" d="M24 44L25 45L24 44M172 44L173 45L172 44z"/>
<path style="fill:#3e5c3c; stroke:none;" d="M23 45L24 46L23 45z"/>
<path style="fill:#539c4d; stroke:none;" d="M173 45L174 46L173 45z"/>
<path style="fill:#3e5c3c; stroke:none;" d="M22 46L23 47L22 46M174 46L176 48L174 46z"/>
<path style="fill:#539c4d; stroke:none;" d="M22 47L23 48L22 47M174 47L175 48L174 47z"/>
<path style="fill:#3e5c3c; stroke:none;" d="M21 48L20 50L21 48z"/>
<path style="fill:#539c4d; stroke:none;" d="M175 48L176 49L175 48M21 49L22 50L21 49z"/>
<path style="fill:#4be343; stroke:none;" d="M61 49C55.0572 55.068 34.529 72.6956 43 81C37.7777 67.9297 58.3034 60.3071 61 49z"/>
<path style="fill:#539c4d; stroke:none;" d="M62 49L62 50L155 50L126 49L62 49z"/>
<path style="fill:#4be343; stroke:none;" d="M155 49L157 51L155 49z"/>
<path style="fill:#3e5c3c; stroke:none;" d="M176 49L178 51L176 49z"/>
<path style="fill:#539c4d; stroke:none;" d="M20 50L21 51L20 50z"/>
<path style="fill:#3e5c3c; stroke:none;" d="M61 50L59 53L61 50z"/>
<path style="fill:#030303; stroke:none;" d="M62.0895 51.0278C55.6128 54.5057 48.6876 64.988 44.5579 71C43.1229 73.089 41.0199 76.8651 43.608 78.9722C47.6322 82.2485 59.9855 80 65 80L115 80C121.062 80 130.7 81.8168 135.985 78.3966C142.259 74.3366 147.668 65.8943 152.177 60C153.736 57.9623 156.812 54.3209 154.928 51.6034C152.205 47.6735 137.369 50 133 50L83 50C77.0914 50 67.4107 48.1704 62.0895 51.0278z"/>
<path style="fill:#3e5c3c; stroke:none;" d="M155 50L156 51L155 50z"/>
<path style="fill:#539c4d; stroke:none;" d="M176 50L178 52L176 50z"/>
<path style="fill:#3e5c3c; stroke:none;" d="M19 51L20 52L19 51z"/>
<path style="fill:#539c4d; stroke:none;" d="M156 51L155 57L156 57L156 51z"/>
<path style="fill:#4be343; stroke:none;" d="M176 51L177 52L176 51z"/>
<path style="fill:#539c4d; stroke:none;" d="M19 52L20 53L19 52z"/>
<path style="fill:#4be343; stroke:none;" d="M177 52L178 53L177 52z"/>
<path style="fill:#3e5c3c; stroke:none;" d="M178 52L179 53L178 52M18 53L17 55L18 53z"/>
<path style="fill:#539c4d; stroke:none;" d="M58 53L56 56L58 53M178 53L179 54L178 53M18 54L17 56L18 54z"/>
<path style="fill:#3e5c3c; stroke:none;" d="M58 54L59 55L58 54z"/>
<path style="fill:#4be343; stroke:none;" d="M178 54L181 61L182 61L178 54z"/>
<path style="fill:#3e5c3c; stroke:none;" d="M179 54L181 56L179 54z"/>
<path style="fill:#4be343; stroke:none;" d="M18 55L19 56L18 55z"/>
<path style="fill:#3e5c3c; stroke:none;" d="M57 55L58 56L57 55M155 55L156 56L155 55z"/>
<path style="fill:#539c4d; stroke:none;" d="M179 55L180 56L179 55z"/>
<path style="fill:#3e5c3c; stroke:none;" d="M16 56L17 57L16 56z"/>
<path style="fill:#4be343; stroke:none;" d="M17 56L8 87L9 87L17 56z"/>
<path style="fill:#3e5c3c; stroke:none;" d="M56 56L57 57L56 56z"/>
<path style="fill:#4be343; stroke:none;" d="M156 56L157 57L156 56z"/>
<path style="fill:#539c4d; stroke:none;" d="M180 56L181 57L180 56M16 57L17 58L16 57z"/>
<path style="fill:#3e5c3c; stroke:none;" d="M55 57L56 58L55 57M65 57L64 59L65 57z"/>
<path style="fill:#539c4d; stroke:none;" d="M66 57L63 61L66 57z"/>
<path style="fill:#4be343; stroke:none;" d="M67 57L67 58L131 58L111 57L67 57z"/>
<path style="fill:#539c4d; stroke:none;" d="M131 57L132 58L131 57z"/>
<path style="fill:#4be343; stroke:none;" d="M132 57L133 58L132 57z"/>
<path style="fill:#539c4d; stroke:none;" d="M133 57L133 58L138 58L133 57z"/>
<path style="fill:#4be343; stroke:none;" d="M138 57L138 58L142 58L131 72L143 58L138 57z"/>
<path style="fill:#539c4d; stroke:none;" d="M142 57L143 58L142 57z"/>
<path style="fill:#3e5c3c; stroke:none;" d="M143.333 57.6667L143.667 58.3333L143.333 57.6667M154 57L151 61L154 57z"/>
<path style="fill:#4be343; stroke:none;" d="M155 57L156 58L155 57z"/>
<path style="fill:#3e5c3c; stroke:none;" d="M181 57L182 58L181 57M15 58L16 59L15 58z"/>
<path style="fill:#539c4d; stroke:none;" d="M54 58L55 59L54 58z"/>
<path style="fill:#07ff05; stroke:none;" d="M56 72L107 72L129.83 71.3966L142 58L90 58L67.2894 58.6034L56 72z"/>
<path style="fill:#4be343; stroke:none;" d="M154 58L135 80L135 81C140.86 78.1445 154.169 64.7373 154 58z"/>
<path style="fill:#539c4d; stroke:none;" d="M181 58L182 59L181 58M15 59L16 60L15 59M53 59L51 62L53 59z"/>
<path style="fill:#4be343; stroke:none;" d="M65 59L66 60L65 59z"/>
<path style="fill:#539c4d; stroke:none;" d="M142 59L143 60L142 59M153 59L154 60L153 59z"/>
<path style="fill:#3e5c3c; stroke:none;" d="M182.333 59.6667L182.667 60.3333L182.333 59.6667M14 60L15 61L14 60M53 60L54 61L53 60z"/>
<path style="fill:#4be343; stroke:none;" d="M64 60L65 61L64 60z"/>
<path style="fill:#539c4d; stroke:none;" d="M141 60L139 63L141 60M152 60L153 61L152 60M14.3333 61.6667L14.6667 62.3333L14.3333 61.6667z"/>
<path style="fill:#3e5c3c; stroke:none;" d="M52 61L53 62L52 61M62 61L60 64L62 61z"/>
<path style="fill:#4be343; stroke:none;" d="M63 61L64 62L63 61z"/>
<path style="fill:#3e5c3c; stroke:none;" d="M141 61L142 62L141 61z"/>
<path style="fill:#539c4d; stroke:none;" d="M151 61L152 62L151 61M182 61L183 62L182 61z"/>
<path style="fill:#3e5c3c; stroke:none;" d="M13.3333 62.6667L13.6667 63.3333L13.3333 62.6667M51 62L52 63L51 62z"/>
<path style="fill:#4be343; stroke:none;" d="M62 62L63 63L62 62z"/>
<path style="fill:#3e5c3c; stroke:none;" d="M140 62L141 63L140 62z"/>
<path style="fill:#539c4d; stroke:none;" d="M150 62L151 63L150 62z"/>
<path style="fill:#4be343; stroke:none;" d="M182 62L183 63L182 62z"/>
<path style="fill:#3e5c3c; stroke:none;" d="M183 62L184 63L183 62M50 63L51 64L50 63z"/>
<path style="fill:#4be343; stroke:none;" d="M61 63L55 72L61 63z"/>
<path style="fill:#3e5c3c; stroke:none;" d="M139 63L140 64L139 63z"/>
<path style="fill:#539c4d; stroke:none;" d="M149 63L150 64L149 63M183 63L184 64L183 63M13 64L14 65L13 64M49 64L50 65L49 64M60 64L61 65L60 64z"/>
<path style="fill:#3e5c3c; stroke:none;" d="M138 64L139 65L138 64M148 64L146 67L148 64z"/>
<path style="fill:#4be343; stroke:none;" d="M183.333 64.6667L183.667 65.3333L183.333 64.6667z"/>
<path style="fill:#3e5c3c; stroke:none;" d="M184 64L185 65L184 64M12.3333 65.6667L12.6667 66.3333L12.3333 65.6667z"/>
<path style="fill:#539c4d; stroke:none;" d="M48 65L46 68L48 65z"/>
<path style="fill:#3e5c3c; stroke:none;" d="M58 65L59 66L58 65z"/>
<path style="fill:#539c4d; stroke:none;" d="M59 65L60 66L59 65M137 65L134 69L137 65M148 65L149 66L148 65M184.333 65.6667L184.667 66.3333L184.333 65.6667z"/>
<path style="fill:#3e5c3c; stroke:none;" d="M48 66L49 67L48 66z"/>
<path style="fill:#539c4d; stroke:none;" d="M58 66L59 67L58 66z"/>
<path style="fill:#3e5c3c; stroke:none;" d="M137 66L138 67L137 66z"/>
<path style="fill:#539c4d; stroke:none;" d="M147 66L148 67L147 66z"/>
<path style="fill:#3e5c3c; stroke:none;" d="M185.333 66.6667L185.667 67.3333L185.333 66.6667z"/>
<path style="fill:#539c4d; stroke:none;" d="M12 67L13 68L12 67z"/>
<path style="fill:#3e5c3c; stroke:none;" d="M47 67L48 68L47 67M57 67L58 68L57 67M136 67L137 68L136 67z"/>
<path style="fill:#539c4d; stroke:none;" d="M146 67L147 68L146 67z"/>
<path style="fill:#4be343; stroke:none;" d="M184 67L185 68L184 67z"/>
<path style="fill:#3e5c3c; stroke:none;" d="M11 68L12 69L11 68M46 68L47 69L46 68M56 68L57 69L56 68M135 68L136 69L135 68z"/>
<path style="fill:#539c4d; stroke:none;" d="M145 68L146 69L145 68M185 68L186 69L185 68M11 69L12 70L11 69z"/>
<path style="fill:#3e5c3c; stroke:none;" d="M45 69L46 70L45 69M55 69L53 73L54 73L55 69M134 69L135 70L134 69M144 69L145 70L144 69z"/>
<path style="fill:#4be343; stroke:none;" d="M185.333 69.6667L185.667 70.3333L185.333 69.6667z"/>
<path style="fill:#3e5c3c; stroke:none;" d="M186.333 69.6667L186.667 70.3333L186.333 69.6667M10.3333 70.6667L10.6667 71.3333L10.3333 70.6667z"/>
<path style="fill:#539c4d; stroke:none;" d="M44 70L45 71L44 70M55 70L56 71L55 70z"/>
<path style="fill:#3e5c3c; stroke:none;" d="M133 70L134 71L133 70M143 70L144 71L143 70z"/>
<path style="fill:#539c4d; stroke:none;" d="M43 71L42 73L43 71M54 71C57.6059 75.1265 68.783 73 74 73L132 73L132 72C107.592 72 77.7304 76.6497 54 71M132 71L133 72L132 71z"/>
<path style="fill:#3e5c3c; stroke:none;" d="M142 71L141 73L142 71z"/>
<path style="fill:#539c4d; stroke:none;" d="M186 71L187 72L186 71M10.3333 72.6667L10.6667 73.3333L10.3333 72.6667z"/>
<path style="fill:#3e5c3c; stroke:none;" d="M43 72L44 73L43 72z"/>
<path style="fill:#539c4d; stroke:none;" d="M142 72L143 73L142 72z"/>
<path style="fill:#4be343; stroke:none;" d="M186.333 72.6667L186.667 73.3333L186.333 72.6667z"/>
<path style="fill:#3e5c3c; stroke:none;" d="M187.333 72.6667L187.667 73.3333L187.333 72.6667M42 73L43 74L42 73z"/>
<path style="fill:#539c4d; stroke:none;" d="M141 73L142 74L141 73z"/>
<path style="fill:#3e5c3c; stroke:none;" d="M9.33333 74.6667L9.66667 75.3333L9.33333 74.6667M41 74L41 79L42 79L41 74z"/>
<path style="fill:#539c4d; stroke:none;" d="M140 74L141 75L140 74M187 74L188 75L187 74z"/>
<path style="fill:#3e5c3c; stroke:none;" d="M139 75L140 76L139 75z"/>
<path style="fill:#4be343; stroke:none;" d="M187 75L187 78L188 78L187 75z"/>
<path style="fill:#3e5c3c; stroke:none;" d="M188 75L188 78L189 78L188 75z"/>
<path style="fill:#539c4d; stroke:none;" d="M9 76L10 77L9 76z"/>
<path style="fill:#3e5c3c; stroke:none;" d="M138 76L135 80L138 76z"/>
<path style="fill:#539c4d; stroke:none;" d="M138 77L139 78L138 77z"/>
<path style="fill:#3e5c3c; stroke:none;" d="M8.33333 78.6667L8.66667 79.3333L8.33333 78.6667z"/>
<path style="fill:#539c4d; stroke:none;" d="M137 78L138 79L137 78M188.333 78.6667L188.667 79.3333L188.333 78.6667z"/>
<path style="fill:#3e5c3c; stroke:none;" d="M42 79L43 80L42 79z"/>
<path style="fill:#539c4d; stroke:none;" d="M136 79L137 80L136 79z"/>
<path style="fill:#3e5c3c; stroke:none;" d="M189 79L189 83L190 83L189 79z"/>
<path style="fill:#539c4d; stroke:none;" d="M8 80L9 81L8 80M43 80L43 81L135 81L107 80L43 80z"/>
<path style="fill:#4be343; stroke:none;" d="M188.333 80.6667L188.667 81.3333L188.333 80.6667z"/>
<path style="fill:#3e5c3c; stroke:none;" d="M7 81L7 85L8 85L7 81z"/>
<path style="fill:#4be343; stroke:none;" d="M44 83L44 84L75 84L44 83M76 83L77 84L76 83M78 83L78 84L99 84L78 83M100 83L100 84L107 84L100 83M108 83L108 84L112 84L108 83M113 83L113 84L135 84L113 83z"/>
<path style="fill:#539c4d; stroke:none;" d="M189.333 83.6667L189.667 84.3333L189.333 83.6667z"/>
<path style="fill:#4be343; stroke:none;" d="M41 84C37.9298 94.7938 52.0725 105.135 58 113L59 113L41 84z"/>
<path style="fill:#539c4d; stroke:none;" d="M41 86L44 85L41 86z"/>
<path style="fill:#3e5c3c; stroke:none;" d="M44 84L44 85L135 85L107 84L44 84z"/>
<path style="fill:#539c4d; stroke:none;" d="M135 84L136 85L135 84z"/>
<path style="fill:#4be343; stroke:none;" d="M136 84L156 109L157 109C152.513 100.303 143.946 89.7155 136 84z"/>
<path style="fill:#539c4d; stroke:none;" d="M7 85L7 89L8 89L7 85z"/>
<path style="fill:#3e5c3c; stroke:none;" d="M42 85L41 90L42 90L42 85z"/>
<path style="fill:#030303; stroke:none;" d="M43.608 86.0278C40.9283 88.215 43.3764 91.9366 44.8619 94C49.1283 99.9264 55.7457 110.517 62.3248 113.91C67.9869 116.831 77.7673 115 84 115L133 115C137.921 115 150.766 117.271 154.377 113.397C156.878 110.714 154.071 107.216 152.37 105C148.079 99.4116 141.475 88.316 134.83 85.6034C129.179 83.2967 120.047 85 114 85L66 85C60.8056 85 47.7606 82.6384 43.608 86.0278z"/>
<path style="fill:#3e5c3c; stroke:none;" d="M136 85L137 86L136 85z"/>
<path style="fill:#4be343; stroke:none;" d="M189.333 85.6667L189.667 86.3333L189.333 85.6667z"/>
<path style="fill:#3e5c3c; stroke:none;" d="M190 85L190 88L191 88L190 85z"/>
<path style="fill:#539c4d; stroke:none;" d="M137 86L140 89L137 86z"/>
<path style="fill:#3e5c3c; stroke:none;" d="M137 87L138 88L137 87M138 88L139 89L138 88z"/>
<path style="fill:#539c4d; stroke:none;" d="M190 88L190 91L191 91L190 88z"/>
<path style="fill:#3e5c3c; stroke:none;" d="M6 89L6 92L7 92L6 89z"/>
<path style="fill:#4be343; stroke:none;" d="M7 89L7 110L8 110L7 89z"/>
<path style="fill:#3e5c3c; stroke:none;" d="M139 89L140 90L139 89z"/>
<path style="fill:#539c4d; stroke:none;" d="M41 90L42 91L41 90z"/>
<path style="fill:#3e5c3c; stroke:none;" d="M140 90L141 91L140 90M42 91L43 92L42 91M53 92L53 93C76.7304 87.3503 106.592 92 131 92C124.806 89.4009 115.686 91 109 91C91.9063 91 69.3727 87.1605 53 92M141 91L142 92L141 91z"/>
<path style="fill:#4be343; stroke:none;" d="M190 91L190 108L191 108L190 91z"/>
<path style="fill:#3e5c3c; stroke:none;" d="M191 91L191 108L192 108L191 91z"/>
<path style="fill:#539c4d; stroke:none;" d="M6 92L6 106L7 106L6 92z"/>
<path style="fill:#3e5c3c; stroke:none;" d="M43 92L46 95L43 92z"/>
<path style="fill:#539c4d; stroke:none;" d="M54 92L58 97L54 92z"/>
<path style="fill:#4be343; stroke:none;" d="M55 92L63 102L56 93L106 93L128.985 93.6034L143 107L130.985 93.0278L108 92L55 92z"/>
<path style="fill:#539c4d; stroke:none;" d="M131 92L133 94L131 92z"/>
<path style="fill:#3e5c3c; stroke:none;" d="M132 92L133 93L132 92z"/>
<path style="fill:#539c4d; stroke:none;" d="M142 92L145 95L142 92M43 93L44 94L43 93z"/>
<path style="fill:#07ff05; stroke:none;" d="M56 93L67.0394 105.972L89 107L141 107C139.152 102.23 134.976 95.5373 129.961 93.6034C123.642 91.167 113.722 93 107 93L56 93z"/>
<path style="fill:#3e5c3c; stroke:none;" d="M142 93L143 94L142 93z"/>
<path style="fill:#539c4d; stroke:none;" d="M44 94L45 95L44 94M133 94L134 95L133 94z"/>
<path style="fill:#3e5c3c; stroke:none;" d="M143 94L144 95L143 94z"/>
<path style="fill:#539c4d; stroke:none;" d="M45 95L46 96L45 95z"/>
<path style="fill:#3e5c3c; stroke:none;" d="M55 95L56 96L55 95M134 95L135 96L134 95M144 95L145 96L144 95M46 96L47 97L46 96M56 96L57 97L56 96M135 96L136 97L135 96M145 96L146 97L145 96M47 97L48 98L47 97M57 97L58 98L57 97M136 97L138 99L136 97M146 97L147 98L146 97M48 98L51 101L48 98M58 98L59 99L58 98z"/>
<path style="fill:#539c4d; stroke:none;" d="M136 98L137 99L136 98M147 98L150 101L147 98M48 99L49 100L48 99z"/>
<path style="fill:#3e5c3c; stroke:none;" d="M59 99L60 100L59 99z"/>
<path style="fill:#539c4d; stroke:none;" d="M137 99L138 100L137 99z"/>
<path style="fill:#3e5c3c; stroke:none;" d="M147 99L148 100L147 99z"/>
<path style="fill:#539c4d; stroke:none;" d="M49 100L50 101L49 100M60 100L63 103L60 100M138 100L139 101L138 100z"/>
<path style="fill:#3e5c3c; stroke:none;" d="M148 100L149 101L148 100z"/>
<path style="fill:#539c4d; stroke:none;" d="M50 101L51 102L50 101z"/>
<path style="fill:#3e5c3c; stroke:none;" d="M60 101L61 102L60 101z"/>
<path style="fill:#539c4d; stroke:none;" d="M139 101L140 102L139 101z"/>
<path style="fill:#3e5c3c; stroke:none;" d="M149 101L150 102L149 101M51 102L52 103L51 102M61 102L62 103L61 102M140 102L141 103L140 102M150 102L151 103L150 102M52 103L53 104L52 103M62 103L65 106L62 103z"/>
<path style="fill:#4be343; stroke:none;" d="M63 103L64 104L63 103z"/>
<path style="fill:#3e5c3c; stroke:none;" d="M141 103L144 106L141 103M151 103L152 104L151 103M53 104L56 107L53 104z"/>
<path style="fill:#4be343; stroke:none;" d="M64 104L65 105L64 104z"/>
<path style="fill:#539c4d; stroke:none;" d="M141 104L142 105L141 104M152 104L155 107L152 104M53 105L54 106L53 105z"/>
<path style="fill:#4be343; stroke:none;" d="M65 105L67 107L65 105z"/>
<path style="fill:#539c4d; stroke:none;" d="M142 105L143 106L142 105z"/>
<path style="fill:#3e5c3c; stroke:none;" d="M152 105L153 106L152 105M6 106L6 110L7 110L6 106z"/>
<path style="fill:#539c4d; stroke:none;" d="M54 106L55 107L54 106M65 106L66 107L65 106M143 106L144 107L143 106z"/>
<path style="fill:#3e5c3c; stroke:none;" d="M153 106L154 107L153 106z"/>
<path style="fill:#539c4d; stroke:none;" d="M55 107L56 108L55 107z"/>
<path style="fill:#3e5c3c; stroke:none;" d="M65.6667 107.333L66.3333 107.667L65.6667 107.333z"/>
<path style="fill:#539c4d; stroke:none;" d="M67 107L67 108L142 108L119 107L67 107z"/>
<path style="fill:#3e5c3c; stroke:none;" d="M142.667 107.333L143.333 107.667L142.667 107.333M154 107L155 108L154 107M56 108L57 109L56 108M155 108L156 109L155 108z"/>
<path style="fill:#539c4d; stroke:none;" d="M190 108L190 112L191 112L190 108z"/>
<path style="fill:#3e5c3c; stroke:none;" d="M57 109L58 110L57 109z"/>
<path style="fill:#539c4d; stroke:none;" d="M156 109L155 115L156 115L156 109M7 110L7 114L8 114L7 110z"/>
<path style="fill:#3e5c3c; stroke:none;" d="M58 110L59 111L58 110z"/>
<path style="fill:#539c4d; stroke:none;" d="M58 111L59 112L58 111z"/>
<path style="fill:#4be343; stroke:none;" d="M8 112L10 125L11 125L8 112z"/>
<path style="fill:#539c4d; stroke:none;" d="M59 112L62 115L59 112z"/>
<path style="fill:#3e5c3c; stroke:none;" d="M60 112L61 113L60 112z"/>
<path style="fill:#4be343; stroke:none;" d="M189.333 112.667L189.667 113.333L189.333 112.667z"/>
<path style="fill:#3e5c3c; stroke:none;" d="M190 112L190 115L191 115L190 112M155 113L156 114L155 113M7 114L7 118L8 118L7 114z"/>
<path style="fill:#4be343; stroke:none;" d="M60 114L61 115L60 114z"/>
<path style="fill:#3e5c3c; stroke:none;" d="M62 114L63 115L62 114M154 114L155 115L154 114z"/>
<path style="fill:#4be343; stroke:none;" d="M156 114L157 115L156 114z"/>
<path style="fill:#539c4d; stroke:none;" d="M189 114L189 117L190 117L189 114z"/>
<path style="fill:#4be343; stroke:none;" d="M62 115L62 116L155 116L126 115L62 115M188.333 117.667L188.667 118.333L188.333 117.667z"/>
<path style="fill:#3e5c3c; stroke:none;" d="M189 117L189 120L190 120L189 117z"/>
<path style="fill:#539c4d; stroke:none;" d="M8.33333 118.667L8.66667 119.333L8.33333 118.667z"/>
<path style="fill:#4be343; stroke:none;" d="M62 118L62 119L155 119L126 118L62 118M60 119C55.2261 124.469 37.5279 139.94 40.6219 147.852C42.8894 153.65 58.9321 151 64 151L119 151C127.511 151 135.458 152.612 141 145C131.727 151.231 122.876 150 112 150L66 150C61.0819 150 44.8584 152.578 42.0826 147.682C40.1455 144.266 44.0106 140.363 46.0046 138C50.11 133.135 59.5934 125.472 60 119z"/>
<path style="fill:#539c4d; stroke:none;" d="M61 119L60 121L61 119z"/>
<path style="fill:#3e5c3c; stroke:none;" d="M58 124C66.8618 118.426 76.8316 120 87 120C108.662 120 134.929 115.983 156 121C150.726 117.004 140.423 119 134 119L79 119C71.3137 119 63.135 117.26 58 124z"/>
<path style="fill:#539c4d; stroke:none;" d="M155 119L156 120L155 119z"/>
<path style="fill:#4be343; stroke:none;" d="M156.333 119.667L156.667 120.333L156.333 119.667z"/>
<path style="fill:#539c4d; stroke:none;" d="M188.333 119.667L188.667 120.333L188.333 119.667z"/>
<path style="fill:#3e5c3c; stroke:none;" d="M8.33333 120.667L8.66667 121.333L8.33333 120.667z"/>
<path style="fill:#030303; stroke:none;" d="M42 149L107 149C115.079 149 127.389 151.316 134.961 148.397C141.714 145.793 148.268 134.645 152.532 129C153.909 127.177 156.509 124.013 154.914 121.603C153.321 119.196 148.422 120.001 146 120L122 120L80 120C74.6929 120 66.855 118.573 62.0039 121.028C57.2674 123.425 54.0402 129.016 50.75 133C46.5778 138.051 42.372 142.205 42 149z"/>
<path style="fill:#539c4d; stroke:none;" d="M156 121L156 125L157 125L156 121z"/>
<path style="fill:#4be343; stroke:none;" d="M187 121L187 124L188 124L187 121z"/>
<path style="fill:#3e5c3c; stroke:none;" d="M188 121L188 124L189 124L188 121z"/>
<path style="fill:#539c4d; stroke:none;" d="M9.33333 122.667L9.66667 123.333L9.33333 122.667z"/>
<path style="fill:#3e5c3c; stroke:none;" d="M9.33333 124.667L9.66667 125.333L9.33333 124.667z"/>
<path style="fill:#539c4d; stroke:none;" d="M57 124L58 125L57 124M187.333 124.667L187.667 125.333L187.333 124.667M10.3333 125.667L10.6667 126.333L10.3333 125.667M56 125L57 126L56 125z"/>
<path style="fill:#3e5c3c; stroke:none;" d="M155 125L153 128L155 125z"/>
<path style="fill:#4be343; stroke:none;" d="M156 125L141 144C146.046 141.101 156.198 131.024 156 125M186 125L186 128L187 128L186 125M11 126L11 129L12 129L11 126z"/>
<path style="fill:#539c4d; stroke:none;" d="M55 126L54 128L55 126z"/>
<path style="fill:#3e5c3c; stroke:none;" d="M61 132C70.4921 125.622 79.8698 127 91 127L143 127L140 132L144 126L85 126C76.0712 126 66.8363 123.984 61 132z"/>
<path style="fill:#539c4d; stroke:none;" d="M155 126L156 127L155 126z"/>
<path style="fill:#3e5c3c; stroke:none;" d="M187.333 126.667L187.667 127.333L187.333 126.667M10.3333 127.667L10.6667 128.333L10.3333 127.667M55 127L56 128L55 127z"/>
<path style="fill:#4be343; stroke:none;" d="M59 136L68.0394 128.603L91 128L141 128L132 140L143 127L87 127C75.1019 127 66.2465 125.053 59 136z"/>
<path style="fill:#539c4d; stroke:none;" d="M154 127L155 128L154 127z"/>
<path style="fill:#3e5c3c; stroke:none;" d="M54 128L55 129L54 128z"/>
<path style="fill:#07ff05; stroke:none;" d="M56 142L105.17 141.92L129.829 141.258L141 128L90 128L67.0903 128.603L56 142z"/>
<path style="fill:#539c4d; stroke:none;" d="M142 128L143 129L142 128M153 128L154 129L153 128M186 128L187 129L186 128M11 129L12 130L11 129z"/>
<path style="fill:#3e5c3c; stroke:none;" d="M53 129L54 130L53 129z"/>
<path style="fill:#539c4d; stroke:none;" d="M152 129L153 130L152 129z"/>
<path style="fill:#4be343; stroke:none;" d="M185 129L186 130L185 129z"/>
<path style="fill:#3e5c3c; stroke:none;" d="M186 129L185 133L186 133L186 129M11.3333 130.667L11.6667 131.333L11.3333 130.667z"/>
<path style="fill:#4be343; stroke:none;" d="M12 130L14 136L15 136L12 130z"/>
<path style="fill:#539c4d; stroke:none;" d="M52 130L53 131L52 130z"/>
<path style="fill:#3e5c3c; stroke:none;" d="M151 130L150 132L151 130z"/>
<path style="fill:#539c4d; stroke:none;" d="M185 130L186 131L185 130M51 131L49 134L51 131M62 131L63 132L62 131M151 131L152 132L151 131z"/>
<path style="fill:#4be343; stroke:none;" d="M184 131C178.408 147.423 166.622 157.34 157 171C166.155 164.551 186.625 143.69 184 131z"/>
<path style="fill:#539c4d; stroke:none;" d="M12 132L13 133L12 132z"/>
<path style="fill:#3e5c3c; stroke:none;" d="M51 132L52 133L51 132z"/>
<path style="fill:#539c4d; stroke:none;" d="M61 132L62 133L61 132M139 132L140 133L139 132z"/>
<path style="fill:#3e5c3c; stroke:none;" d="M149 132L148 134L149 132M12 133L13 137L14 137L12 133M50 133L51 134L50 133M60 133L61 134L60 133z"/>
<path style="fill:#539c4d; stroke:none;" d="M138 133L137 135L138 133M149 133L150 134L149 133M184 133L185 134L184 133M13 134L14 135L13 134z"/>
<path style="fill:#3e5c3c; stroke:none;" d="M49 134L50 135L49 134M59 134L60 135L59 134M138 134L139 135L138 134z"/>
<path style="fill:#539c4d; stroke:none;" d="M148 134L149 135L148 134z"/>
<path style="fill:#3e5c3c; stroke:none;" d="M184.333 134.667L184.667 135.333L184.333 134.667M48 135L49 136L48 135M58 135L55 139L58 135M137 135L138 136L137 135z"/>
<path style="fill:#539c4d; stroke:none;" d="M147 135L148 136L147 135M14.3333 136.667L14.6667 137.333L14.3333 136.667z"/>
<path style="fill:#3e5c3c; stroke:none;" d="M47 136L48 137L47 136z"/>
<path style="fill:#539c4d; stroke:none;" d="M58 136L55 140L58 136z"/>
<path style="fill:#3e5c3c; stroke:none;" d="M136 136L137 137L136 136M146 136L147 137L146 136z"/>
<path style="fill:#539c4d; stroke:none;" d="M183 136L184 137L183 136z"/>
<path style="fill:#4be343; stroke:none;" d="M15 137C19.3903 152.211 32.8373 166.767 46 175L28.2608 156.996L15 137z"/>
<path style="fill:#539c4d; stroke:none;" d="M46 137L43 141L46 137z"/>
<path style="fill:#4be343; stroke:none;" d="M58 137L59 138L58 137z"/>
<path style="fill:#3e5c3c; stroke:none;" d="M135 137L136 138L135 137M145 137L146 138L145 137M183 137L184 138L183 137M14 138L15 139L14 138M46 138L47 139L46 138z"/>
<path style="fill:#4be343; stroke:none;" d="M57 138L58 139L57 138z"/>
<path style="fill:#539c4d; stroke:none;" d="M134 138L132 141L134 138z"/>
<path style="fill:#3e5c3c; stroke:none;" d="M144 138L145 139L144 138z"/>
<path style="fill:#539c4d; stroke:none;" d="M182 138L183 139L182 138M15 139L16 140L15 139z"/>
<path style="fill:#3e5c3c; stroke:none;" d="M45 139L46 140L45 139z"/>
<path style="fill:#4be343; stroke:none;" d="M56 139L57 140L56 139z"/>
<path style="fill:#3e5c3c; stroke:none;" d="M134 139L135 140L134 139z"/>
<path style="fill:#539c4d; stroke:none;" d="M144 139L145 140L144 139z"/>
<path style="fill:#3e5c3c; stroke:none;" d="M182 139L183 140L182 139M15 140L16 141L15 140M44 140L45 141L44 140M54 140C54.6484 145.16 67.6691 143 72 143C90.172 143 115.78 147.608 133 142L133 141C115.357 145.744 92.2794 142 74 142C68.5865 142 57.8774 144.108 54 140z"/>
<path style="fill:#4be343; stroke:none;" d="M55.3333 140.667L55.6667 141.333L55.3333 140.667z"/>
<path style="fill:#3e5c3c; stroke:none;" d="M133 140L134 141L133 140z"/>
<path style="fill:#539c4d; stroke:none;" d="M143 140L144 141L143 140M181 140L182 141L181 140M16 141L17 142L16 141z"/>
<path style="fill:#3e5c3c; stroke:none;" d="M43 141L44 142L43 141z"/>
<path style="fill:#539c4d; stroke:none;" d="M54 141L55 142L54 141z"/>
<path style="fill:#4be343; stroke:none;" d="M57 141L58 142L57 141M61 141L62 142L61 141M64.6667 141.333L65.3333 141.667L64.6667 141.333M68 141L69 142L68 141M89 141L90 142L89 141M94 141L95 142L94 141M102 141L103 142L102 141M114 141L115 142L114 141M121 141L122 142L121 141M130.667 141.333L131.333 141.667L130.667 141.333z"/>
<path style="fill:#539c4d; stroke:none;" d="M142 141L143 142L142 141z"/>
<path style="fill:#3e5c3c; stroke:none;" d="M181 141L182 142L181 141M16 142L17 143L16 142z"/>
<path style="fill:#539c4d; stroke:none;" d="M42 142L41 144L42 142z"/>
<path style="fill:#3e5c3c; stroke:none;" d="M141 142L142 143L141 142z"/>
<path style="fill:#539c4d; stroke:none;" d="M180 142L181 143L180 142M17 143L18 144L17 143z"/>
<path style="fill:#3e5c3c; stroke:none;" d="M42 143L43 144L42 143M140 143L139 145L140 143M180 143L181 144L180 143M17 144L18 145L17 144M41 144L41 148L42 148L41 144z"/>
<path style="fill:#539c4d; stroke:none;" d="M140 144L141 145L140 144M179 144L180 145L179 144z"/>
<path style="fill:#3e5c3c; stroke:none;" d="M18 145L20 148L18 145z"/>
<path style="fill:#539c4d; stroke:none;" d="M139 145L140 146L139 145z"/>
<path style="fill:#3e5c3c; stroke:none;" d="M179 145L180 146L179 145z"/>
<path style="fill:#539c4d; stroke:none;" d="M19 146L20 147L19 146M138 146L139 147L138 146M178 146L179 147L178 146M137 147L138 148L137 147M177 147L178 148L177 147M20 148L21 149L20 148M41 148L42 149L41 148z"/>
<path style="fill:#3e5c3c; stroke:none;" d="M136 148L137 149L136 148M177 148L178 149L177 148M20 149L21 150L20 149z"/>
<path style="fill:#539c4d; stroke:none;" d="M42 149L43 150L42 149z"/>
<path style="fill:#3e5c3c; stroke:none;" d="M43 149L43 150L135 150L107 149L43 149z"/>
<path style="fill:#539c4d; stroke:none;" d="M135 149L136 150L135 149M176 149L177 150L176 149M21 150L22 151L21 150z"/>
<path style="fill:#3e5c3c; stroke:none;" d="M176 150L177 151L176 150z"/>
<path style="fill:#539c4d; stroke:none;" d="M22 151L23 152L22 151z"/>
<path style="fill:#3e5c3c; stroke:none;" d="M175 151L176 152L175 151M22 152L23 153L22 152z"/>
<path style="fill:#539c4d; stroke:none;" d="M174 152L173 154L174 152z"/>
<path style="fill:#3e5c3c; stroke:none;" d="M23 153L24 154L23 153M174 153L175 154L174 153z"/>
<path style="fill:#539c4d; stroke:none;" d="M24 154L26 156L24 154z"/>
<path style="fill:#3e5c3c; stroke:none;" d="M173 154L174 155L173 154M24 155L25 156L24 155z"/>
<path style="fill:#539c4d; stroke:none;" d="M172 155L170 158L172 155z"/>
<path style="fill:#3e5c3c; stroke:none;" d="M25 156L26 157L25 156M172 156L173 157L172 156M26 157L27 158L26 157M171 157L172 158L171 157z"/>
<path style="fill:#539c4d; stroke:none;" d="M27 158L28 159L27 158z"/>
<path style="fill:#3e5c3c; stroke:none;" d="M170 158L171 159L170 158z"/>
<path style="fill:#539c4d; stroke:none;" d="M28 159L30 161L28 159z"/>
<path style="fill:#3e5c3c; stroke:none;" d="M169 159L170 160L169 159M28 160L29 161L28 160M168 160L169 161L168 160M29 161L30 162L29 161z"/>
<path style="fill:#539c4d; stroke:none;" d="M167 161L168 162L167 161z"/>
<path style="fill:#3e5c3c; stroke:none;" d="M30 162L31 163L30 162z"/>
<path style="fill:#539c4d; stroke:none;" d="M166 162L163 166L166 162z"/>
<path style="fill:#3e5c3c; stroke:none;" d="M31 163L32 164L31 163M166 163L167 164L166 163M32 164L33 165L32 164M165 164L166 165L165 164M33 165L34 166L33 165M164 165L165 166L164 165M34 166L38 170L34 166z"/>
<path style="fill:#539c4d; stroke:none;" d="M35 166L36 167L35 166M162 166L161 168L162 166M36 167L37 168L36 167z"/>
<path style="fill:#3e5c3c; stroke:none;" d="M162 167L163 168L162 167z"/>
<path style="fill:#539c4d; stroke:none;" d="M37 168L38 169L37 168M160 168L161 169L160 168M38 169L39 170L38 169z"/>
<path style="fill:#3e5c3c; stroke:none;" d="M159 169L160 170L159 169z"/>
<path style="fill:#539c4d; stroke:none;" d="M39 170L40 171L39 170z"/>
<path style="fill:#3e5c3c; stroke:none;" d="M158 170L159 171L158 170z"/>
<path style="fill:#539c4d; stroke:none;" d="M40 171L41 172L40 171z"/>
<path style="fill:#4be343; stroke:none;" d="M155 171L153 174L155 171z"/>
<path style="fill:#539c4d; stroke:none;" d="M156 171L155 173L156 171z"/>
<path style="fill:#3e5c3c; stroke:none;" d="M157 171L158 172L157 171M41 172L44 175L41 172z"/>
<path style="fill:#539c4d; stroke:none;" d="M42 172L43 173L42 172z"/>
<path style="fill:#3e5c3c; stroke:none;" d="M156 172L157 173L156 172z"/>
<path style="fill:#539c4d; stroke:none;" d="M43 173L44 174L43 173M154 173L155 174L154 173M44 174L45 175L44 174z"/>
<path style="fill:#4be343; stroke:none;" d="M151 174L147 177L147 178L151 174z"/>
<path style="fill:#539c4d; stroke:none;" d="M152 174L151 176L152 174z"/>
<path style="fill:#3e5c3c; stroke:none;" d="M153 174L154 175L153 174M45 175L47 177L45 175z"/>
<path style="fill:#539c4d; stroke:none;" d="M46 175L48 177L46 175z"/>
<path style="fill:#4be343; stroke:none;" d="M47 175L48 176L47 175z"/>
<path style="fill:#3e5c3c; stroke:none;" d="M152 175L153 176L152 175z"/>
<path style="fill:#4be343; stroke:none;" d="M48 176L50 178L48 176z"/>
<path style="fill:#3e5c3c; stroke:none;" d="M150 176L151 177L150 176M48 177L49 178L48 177z"/>
<path style="fill:#539c4d; stroke:none;" d="M148 177L149 178L148 177z"/>
<path style="fill:#3e5c3c; stroke:none;" d="M49 178L50 179L49 178z"/>
<path style="fill:#539c4d; stroke:none;" d="M50 178L51 179L50 178z"/>
<path style="fill:#4be343; stroke:none;" d="M51 178L51 179L54 180L51 178M145 178L142 180L142 181L146 179L145 178z"/>
<path style="fill:#539c4d; stroke:none;" d="M146 178L145 180L146 178z"/>
<path style="fill:#3e5c3c; stroke:none;" d="M147 178L148 179L147 178M51 179L52 180L51 179z"/>
<path style="fill:#539c4d; stroke:none;" d="M52 179L53 180L52 179z"/>
<path style="fill:#3e5c3c; stroke:none;" d="M146 179L147 180L146 179M53 180L55 182L53 180z"/>
<path style="fill:#539c4d; stroke:none;" d="M54 180L56 182L54 180z"/>
<path style="fill:#4be343; stroke:none;" d="M55 180L56 181L55 180z"/>
<path style="fill:#539c4d; stroke:none;" d="M143 180L144 181L143 180z"/>
<path style="fill:#3e5c3c; stroke:none;" d="M144 180L145 181L144 180z"/>
<path style="fill:#4be343; stroke:none;" d="M56 181L56 182L62 184L62 183L56 181M133 184L133 185L141 182L133 184z"/>
<path style="fill:#539c4d; stroke:none;" d="M141 181L142 182L141 181z"/>
<path style="fill:#3e5c3c; stroke:none;" d="M142 181L143 182L142 181M56 182L57 183L56 182z"/>
<path style="fill:#539c4d; stroke:none;" d="M57 182L58 183L57 182M139 182L140 183L139 182z"/>
<path style="fill:#3e5c3c; stroke:none;" d="M140 182L141 183L140 182M58 183L59 184L58 183z"/>
<path style="fill:#539c4d; stroke:none;" d="M59 183L60 184L59 183M137 183L138 184L137 183z"/>
<path style="fill:#3e5c3c; stroke:none;" d="M138 183L139 184L138 183M60.6667 184.333L61.3333 184.667L60.6667 184.333z"/>
<path style="fill:#539c4d; stroke:none;" d="M62 184L63 185L62 184z"/>
<path style="fill:#4be343; stroke:none;" d="M63 184L63 185L70 187L70 186L63 184z"/>
<path style="fill:#539c4d; stroke:none;" d="M135 184L136 185L135 184z"/>
<path style="fill:#3e5c3c; stroke:none;" d="M136 184L137 185L136 184M63 185L64 186L63 185z"/>
<path style="fill:#539c4d; stroke:none;" d="M64 185L65 186L64 185z"/>
<path style="fill:#4be343; stroke:none;" d="M120 188L120 189L132 186L120 188z"/>
<path style="fill:#539c4d; stroke:none;" d="M132.667 185.333L133.333 185.667L132.667 185.333z"/>
<path style="fill:#3e5c3c; stroke:none;" d="M134 185L135 186L134 185M65.6667 186.333L66.3333 186.667L65.6667 186.333z"/>
<path style="fill:#539c4d; stroke:none;" d="M67 186L68 187L67 186M130 186L131 187L130 186z"/>
<path style="fill:#3e5c3c; stroke:none;" d="M131.667 186.333L132.333 186.667L131.667 186.333M68 187L69 188L68 187z"/>
<path style="fill:#539c4d; stroke:none;" d="M69.6667 187.333L70.3333 187.667L69.6667 187.333z"/>
<path style="fill:#4be343; stroke:none;" d="M71 187L71 188L77 189L77 188L71 187z"/>
<path style="fill:#539c4d; stroke:none;" d="M127.667 187.333L128.333 187.667L127.667 187.333z"/>
<path style="fill:#3e5c3c; stroke:none;" d="M129 187L130 188L129 187M71 188L72 189L71 188z"/>
<path style="fill:#539c4d; stroke:none;" d="M72.6667 188.333L73.3333 188.667L72.6667 188.333M124 188L125 189L124 188z"/>
<path style="fill:#3e5c3c; stroke:none;" d="M125.667 188.333L126.333 188.667L125.667 188.333M74.6667 189.333L75.3333 189.667L74.6667 189.333z"/>
<path style="fill:#539c4d; stroke:none;" d="M76.6667 189.333L77.3333 189.667L76.6667 189.333z"/>
<path style="fill:#4be343; stroke:none;" d="M78 189L78 190L89 191L78 189M115 189L115 190L119 190L115 189z"/>
<path style="fill:#539c4d; stroke:none;" d="M119 189L119 190L122 190L119 189z"/>
<path style="fill:#3e5c3c; stroke:none;" d="M122.667 189.333L123.333 189.667L122.667 189.333M78.6667 190.333L79.3333 190.667L78.6667 190.333z"/>
<path style="fill:#539c4d; stroke:none;" d="M80 190L80 191L83 191L80 190z"/>
<path style="fill:#4be343; stroke:none;" d="M90 191L90 192L114 191L90 191z"/>
<path style="fill:#539c4d; stroke:none;" d="M114 190L114 191L118 191L114 190z"/>
<path style="fill:#3e5c3c; stroke:none;" d="M118.667 190.333L119.333 190.667L118.667 190.333M83 191L83 192L86 192L83 191z"/>
<path style="fill:#539c4d; stroke:none;" d="M86 191L86 192L90 192L86 191M108 191L108 192L112 192L108 191z"/>
<path style="fill:#3e5c3c; stroke:none;" d="M112 191L112 192L115 192L112 191M90 192L90 193L98 193L90 192z"/>
<path style="fill:#539c4d; stroke:none;" d="M98 192L99 193L98 192z"/>
<path style="fill:#3e5c3c; stroke:none;" d="M99 192L99 193L108 193L99 192z"/>
</svg>
